<?xml version="1.0" encoding="UTF-8"?>
<svg version="1.1" xmlns="http://www.w3.org/2000/svg" width="810" height="535">
<path d="M0 0 C267.3 0 534.6 0 810 0 C810 176.55 810 353.1 810 535 C542.7 535 275.4 535 0 535 C0 358.45 0 181.9 0 0 Z " fill="#3EAF71" transform="translate(0,0)"/>
<path d="M0 0 C6.37703458 3.82622075 11.09600579 7.41989445 13.125 14.875 C13.59040592 19.59002694 13.59302399 24.28820352 13.59375 29.0234375 C13.6008636 30.40435083 13.60856432 31.78526125 13.61682129 33.16616821 C13.63022241 36.05259426 13.63185494 38.93874699 13.62597656 41.82519531 C13.62008663 45.502644 13.6506605 49.17876962 13.69109344 52.85596275 C13.71709395 55.70611488 13.7198368 58.55595368 13.71620178 61.40620804 C13.71869186 63.4140576 13.74329843 65.42184112 13.76843262 67.42953491 C13.70049318 76.46849498 12.24050539 82.75949461 5.75 89.25 C-1.99559821 94.04489413 -8.316998 94.93677175 -17.3359375 93.4765625 C-23.59872919 91.83070939 -27.39073884 88.25484366 -30.875 82.875 C-34.55972955 76.2685115 -34.31019993 70.00842035 -34.2734375 62.56640625 C-34.27630768 61.28571762 -34.27917786 60.00502899 -34.28213501 58.68553162 C-34.28654016 55.98319559 -34.28018745 53.28115849 -34.26611328 50.57885742 C-34.24903915 47.13476224 -34.25886202 43.6913695 -34.27683067 40.24730015 C-34.29035193 36.9369477 -34.28085091 33.62677858 -34.2734375 30.31640625 C-34.27951019 29.08910294 -34.28558289 27.86179962 -34.2918396 26.5973053 C-34.22738503 18.70429794 -33.31996467 13.08033923 -29.3125 6.1875 C-21.42717474 -1.29344961 -10.37542518 -3.87038333 0 0 Z " fill="#FAFDFB" transform="translate(322.875,204.125)"/>
<path d="M0 0 C1.60488281 -0.00580078 1.60488281 -0.00580078 3.2421875 -0.01171875 C4.3559375 -0.00011719 5.4696875 0.01148438 6.6171875 0.0234375 C8.25300781 0.00603516 8.25300781 0.00603516 9.921875 -0.01171875 C18.46206951 0.01892788 26.71702923 0.63571926 33.3671875 6.4609375 C40.13730754 14.17535324 41.22560355 22.59688736 40.80859375 32.55078125 C40.10148007 41.14963279 37.97558896 47.49294369 31.4921875 53.3984375 C30.5021875 53.8934375 30.5021875 53.8934375 29.4921875 54.3984375 C30.14667675 58.42119729 31.40542981 61.87047774 32.99609375 65.6171875 C33.48916016 66.79667969 33.98222656 67.97617187 34.49023438 69.19140625 C35.27260649 71.0491406 36.05774127 72.90560967 36.84741211 74.76025391 C37.61302844 76.56347243 38.367203 78.37153537 39.12109375 80.1796875 C39.57556885 81.25283203 40.03004395 82.32597656 40.49829102 83.43164062 C41.47942791 86.36034993 41.91471058 88.3459643 41.4921875 91.3984375 C38.44405262 94.08369918 36.34123302 95.28190184 32.3046875 95.8359375 C28.99546307 95.32116926 28.52668156 94.97332873 26.4921875 92.3984375 C25.35855604 89.99928145 24.33134017 87.63729021 23.35546875 85.17578125 C23.07116501 84.474496 22.78686127 83.77321075 22.49394226 83.05067444 C21.89623367 81.57194262 21.30221962 80.09171277 20.71166992 78.61010742 C19.80528319 76.33743112 18.8870442 74.06982885 17.96679688 71.80273438 C17.38731989 70.36486562 16.80852028 68.92672366 16.23046875 67.48828125 C15.8180468 66.46794044 15.8180468 66.46794044 15.39729309 65.42698669 C13.4921875 60.63105133 13.4921875 60.63105133 13.4921875 58.3984375 C11.1821875 58.3984375 8.8721875 58.3984375 6.4921875 58.3984375 C6.4921875 69.9484375 6.4921875 81.4984375 6.4921875 93.3984375 C2.19526901 95.54689675 0.19709161 95.72860621 -4.5078125 95.3984375 C-6.1896631 94.77106138 -7.86009741 94.1106574 -9.5078125 93.3984375 C-9.60039334 81.71577511 -9.67151695 70.03319965 -9.71506119 58.35024548 C-9.73595771 52.92566684 -9.76431318 47.50133873 -9.80957031 42.0769043 C-9.85295419 36.84439435 -9.87693404 31.61212573 -9.88732147 26.37944984 C-9.89472625 24.38068147 -9.90918566 22.38192667 -9.93073273 20.38326073 C-9.95966758 17.58879171 -9.96377267 14.79532654 -9.96191406 12.00073242 C-9.97629517 11.16995178 -9.99067627 10.33917114 -10.00549316 9.48321533 C-9.9651126 3.89172809 -9.9651126 3.89172809 -7.6413269 1.38505554 C-4.96050039 0.14533961 -2.95295427 0.01037858 0 0 Z " fill="#FAFDFB" transform="translate(554.5078125,202.6015625)"/>
<path d="M0 0 C1.11955078 -0.00386719 2.23910156 -0.00773438 3.39257812 -0.01171875 C5.14151367 0.00568359 5.14151367 0.00568359 6.92578125 0.0234375 C8.07240234 0.01183594 9.21902344 0.00023437 10.40039062 -0.01171875 C18.06194359 0.01459454 25.34441015 0.30313996 31.54296875 5.23046875 C39.61824837 15.4149632 40.94104176 23.6186074 40.23828125 36.3984375 C39.14408733 43.4272425 36.51883106 48.58857737 31.23828125 53.3984375 C30.24828125 53.8934375 30.24828125 53.8934375 29.23828125 54.3984375 C29.81384672 58.81851682 30.94061304 62.40693263 32.77734375 66.4609375 C33.52371094 68.15089844 33.52371094 68.15089844 34.28515625 69.875 C35.338549 72.22688183 36.39846911 74.5758508 37.46484375 76.921875 C37.95984375 78.04851562 38.45484375 79.17515625 38.96484375 80.3359375 C39.42455566 81.35558594 39.88426758 82.37523437 40.35791016 83.42578125 C41.38554237 86.89567859 41.28085724 88.94732074 40.23828125 92.3984375 C37.44301327 94.26194949 36.39782498 94.74152657 33.23828125 95.1484375 C32.55765625 95.24640625 31.87703125 95.344375 31.17578125 95.4453125 C29.23828125 95.3984375 29.23828125 95.3984375 26.23828125 93.3984375 C25.00521249 90.78934622 23.91705076 88.23344774 22.8828125 85.546875 C22.57631271 84.77284332 22.26981293 83.99881165 21.95402527 83.20132446 C20.97732036 80.7287805 20.01393606 78.25128706 19.05078125 75.7734375 C18.39084477 74.09601131 17.73004782 72.41892337 17.06835938 70.7421875 C15.44832327 66.6314623 13.84021432 62.51624929 12.23828125 58.3984375 C8.77328125 57.9034375 8.77328125 57.9034375 5.23828125 57.3984375 C5.26184692 59.01854736 5.26184692 59.01854736 5.28588867 60.67138672 C5.34010359 64.6706601 5.37460029 68.66990088 5.40307617 72.66943359 C5.41818215 74.40191099 5.43866819 76.13435004 5.46459961 77.86669922 C5.50090446 80.35393728 5.5179889 82.84067076 5.53125 85.328125 C5.54673386 86.10525848 5.56221771 86.88239197 5.57817078 87.68307495 C5.57885742 89.86669922 5.57885742 89.86669922 5.23828125 93.3984375 C1.52252374 95.87560917 -0.36158613 95.70189492 -4.76171875 95.3984375 C-6.44386354 94.77185062 -8.11444955 94.11168808 -9.76171875 93.3984375 C-9.85429959 81.71577511 -9.9254232 70.03319965 -9.96896744 58.35024548 C-9.98986396 52.92566684 -10.01821943 47.50133873 -10.06347656 42.0769043 C-10.10686044 36.84439435 -10.13084029 31.61212573 -10.14122772 26.37944984 C-10.1486325 24.38068147 -10.16309191 22.38192667 -10.18463898 20.38326073 C-10.21357383 17.58879171 -10.21767892 14.79532654 -10.21582031 12.00073242 C-10.23020142 11.16995178 -10.24458252 10.33917114 -10.25939941 9.48321533 C-10.21903185 3.89352702 -10.21903185 3.89352702 -7.90196228 1.38505554 C-5.14597937 0.11459149 -3.03379092 0.01015373 0 0 Z " fill="#FCFDFD" transform="translate(231.76171875,202.6015625)"/>
<path d="M0 0 C1.59324505 4.60270792 2.18182284 9.20022772 2.8359375 14.015625 C4.18370748 23.54548709 5.85299106 33.01810596 7.5 42.5 C15.24511053 87.08890012 15.24511053 87.08890012 12.82421875 90.8046875 C10.44185562 92.36572201 8.83532347 92.43328077 6 92.4375 C5.13375 92.45683594 4.2675 92.47617187 3.375 92.49609375 C1 92 1 92 -0.76953125 90.45703125 C-2.44400063 87.11340826 -2.56533041 83.91429687 -2.6875 80.25 C-2.8421875 76.66125 -2.8421875 76.66125 -3 73 C-8.61 73 -14.22 73 -20 73 C-20.12375 74.85625 -20.2475 76.7125 -20.375 78.625 C-20.74270438 83.01155783 -21.14083561 86.95358338 -23 91 C-25.32686453 92.16343227 -26.84721413 92.19895988 -29.4375 92.25 C-30.61119141 92.28867187 -30.61119141 92.28867187 -31.80859375 92.328125 C-34 92 -34 92 -35.78515625 90.984375 C-38.77346421 86.10315172 -36.77030091 78.48092068 -35.83837891 73.1027832 C-35.71479507 72.35862152 -35.59121124 71.61445984 -35.46388245 70.8477478 C-35.0579465 68.41428243 -34.64257372 65.9825428 -34.2265625 63.55078125 C-33.93947929 61.84790355 -33.65281408 60.14495533 -33.36654663 58.44194031 C-32.76712655 54.88496368 -32.16309084 51.32881118 -31.55566406 47.77319336 C-30.77844416 43.22179362 -30.01216323 38.66863342 -29.24923134 34.11481953 C-28.65971512 30.60279648 -28.06475598 27.09171253 -27.46812057 23.58089256 C-27.1834593 21.90227429 -26.90040542 20.2233826 -26.61900711 18.54421425 C-26.22494712 16.19818305 -25.82364878 13.85350179 -25.42041016 11.5090332 C-25.30604111 10.81957108 -25.19167206 10.13010895 -25.07383728 9.41975403 C-24.43263336 5.74177907 -23.70064834 2.34054 -22 -1 C-16.05589892 -3.03350826 -5.35735371 -3.74769009 0 0 Z " fill="#FBFDFC" transform="translate(515,205)"/>
<path d="M0 0 C1.08216797 0.00064453 2.16433594 0.00128906 3.27929688 0.00195312 C4.97602539 0.02612305 4.97602539 0.02612305 6.70703125 0.05078125 C7.81884766 0.04755859 8.93066406 0.04433594 10.07617188 0.04101562 C18.90410067 0.09850954 26.65920568 0.60919434 33.6875 6.4453125 C40.05881283 13.11549289 40.97103974 20.62691517 41.08203125 29.48828125 C41.09685547 30.32311035 41.11167969 31.15793945 41.12695312 32.01806641 C41.00887492 39.15195802 39.18891709 45.18443013 34.5546875 50.703125 C33.90371094 51.23035156 33.25273437 51.75757813 32.58203125 52.30078125 C31.93363281 52.84605469 31.28523438 53.39132812 30.6171875 53.953125 C22.53427403 59.38688992 17.5336626 57.36328125 6.51953125 57.36328125 C6.51953125 69.24328125 6.51953125 81.12328125 6.51953125 93.36328125 C1.74760039 95.74924668 -0.25473317 95.69507399 -5.48046875 95.36328125 C-6.47046875 94.70328125 -7.46046875 94.04328125 -8.48046875 93.36328125 C-8.78254678 90.47923826 -8.88978332 87.80907353 -8.86865234 84.92211914 C-8.8739093 84.04882462 -8.87916626 83.17553009 -8.88458252 82.27577209 C-8.89782365 79.37898045 -8.88902919 76.48273507 -8.87890625 73.5859375 C-8.88092599 71.57815953 -8.88383658 69.57038227 -8.88760376 67.56260681 C-8.89203284 63.35001659 -8.88557796 59.13761693 -8.87158203 54.92504883 C-8.85450085 49.5197712 -8.86432096 44.11494076 -8.88229942 38.7096796 C-8.89313086 34.56189087 -8.88969366 30.41420845 -8.88191605 26.26641655 C-8.8799117 24.27326848 -8.88238151 22.28011083 -8.88935471 20.28697395 C-8.89695741 17.50233462 -8.8853811 14.71842291 -8.86865234 11.93383789 C-8.87472504 11.10619934 -8.88079773 10.27856079 -8.88705444 9.42584229 C-8.8242415 3.79380241 -8.8242415 3.79380241 -7.11344337 1.65129757 C-4.75202105 -0.21128525 -2.97753499 -0.00905026 0 0 Z " fill="#FCFEFD" transform="translate(361.48046875,202.63671875)"/>
<path d="M0 0 C0.72711182 0.00091141 1.45422363 0.00182281 2.20336914 0.00276184 C2.95046143 -0.00152328 3.69755371 -0.00580841 4.46728516 -0.01022339 C6.0475971 -0.01596904 7.6279355 -0.01646521 9.20825195 -0.01213074 C11.63156002 -0.00896905 14.05364949 -0.03243099 16.47680664 -0.05778503 C18.01065926 -0.06005778 19.54451518 -0.06076164 21.07836914 -0.05973816 C21.80548096 -0.06894791 22.53259277 -0.07815765 23.28173828 -0.08764648 C25.32446289 -0.06877136 25.32446289 -0.06877136 28.64086914 0.30354309 C31.08802088 3.97427069 31.17195136 7.03926523 30.64086914 11.30354309 C29.98086914 12.95354309 29.32086914 14.60354309 28.64086914 16.30354309 C22.04086914 16.30354309 15.44086914 16.30354309 8.64086914 16.30354309 C8.64086914 24.22354309 8.64086914 32.14354309 8.64086914 40.30354309 C12.04399414 40.24166809 12.04399414 40.24166809 15.51586914 40.17854309 C19.38305664 40.10823059 19.38305664 40.10823059 22.64086914 40.30354309 C24.64086914 42.30354309 24.64086914 42.30354309 24.90649414 44.54573059 C24.90133789 45.41455872 24.89618164 46.28338684 24.89086914 47.17854309 C24.89860352 48.4740509 24.89860352 48.4740509 24.90649414 49.79573059 C24.64086914 52.30354309 24.64086914 52.30354309 22.64086914 56.30354309 C18.02086914 56.30354309 13.40086914 56.30354309 8.64086914 56.30354309 C8.64086914 63.89354309 8.64086914 71.48354309 8.64086914 79.30354309 C15.13318902 79.18492232 15.13318902 79.18492232 21.62475586 79.03327942 C22.43187012 79.02578674 23.23898437 79.01829407 24.07055664 79.01057434 C24.89797363 78.99486389 25.72539063 78.97915344 26.57788086 78.96296692 C27.25866699 79.07535706 27.93945312 79.18774719 28.64086914 79.30354309 C30.80029733 82.54268538 30.91319892 83.55214042 30.89086914 87.30354309 C30.89860352 88.60291809 30.89860352 88.60291809 30.90649414 89.92854309 C30.64086914 92.30354309 30.64086914 92.30354309 28.64086914 95.30354309 C26.03971358 95.59556033 23.67995762 95.69977659 21.07836914 95.66682434 C20.33127686 95.66732285 19.58418457 95.66782135 18.81445312 95.66833496 C17.23410382 95.66599332 15.65375087 95.6562594 14.07348633 95.63972473 C11.65029663 95.61613487 9.22820692 95.61916219 6.80493164 95.62580872 C5.27107089 95.62023195 3.73721479 95.61312208 2.20336914 95.60432434 C1.47625732 95.60523575 0.74914551 95.60614716 0 95.60708618 C-5.12810103 95.53457292 -5.12810103 95.53457292 -7.35913086 93.30354309 C-7.55787951 90.42228468 -7.6318023 87.63712244 -7.61791992 84.75471497 C-7.62142456 83.87006058 -7.6249292 82.98540619 -7.62854004 82.07394409 C-7.63736652 79.13998138 -7.63150497 76.2062584 -7.62475586 73.27229309 C-7.62610225 71.23969984 -7.62804256 69.20710691 -7.6305542 67.17451477 C-7.63350671 62.91068969 -7.62920375 58.6469483 -7.61987305 54.38313293 C-7.60847846 48.90834136 -7.61503726 43.43374586 -7.62701797 37.95896149 C-7.63423315 33.76062025 -7.63195022 29.56232577 -7.62676239 25.36398315 C-7.62542495 23.34488909 -7.62707691 21.32579083 -7.6317215 19.30670166 C-7.63678111 16.48847657 -7.62908448 13.67057231 -7.61791992 10.85237122 C-7.62196838 10.01178665 -7.62601685 9.17120209 -7.63018799 8.30514526 C-7.58133102 1.67311742 -6.77245099 0.09576498 0 0 Z " fill="#F8FCFA" transform="translate(622.359130859375,202.6964569091797)"/>
<path d="M0 0 C7.00236726 5.65888982 9.44027184 12.77587048 10.375 21.5 C10.189375 22.7375 10.189375 22.7375 10 24 C6.26693776 26.48870816 3.31444778 26.39143175 -1 26 C-3.4375 25.4375 -3.4375 25.4375 -5 24 C-5.6875 20.5625 -5.6875 20.5625 -6 17 C-6.33 16.01 -6.66 15.02 -7 14 C-8.74784467 13.86439136 -10.49873926 13.76772791 -12.25 13.6875 C-13.22453125 13.62949219 -14.1990625 13.57148438 -15.203125 13.51171875 C-18.10538784 13.77253553 -18.10538784 13.77253553 -20.14379883 15.84326172 C-22.88076043 20.49786036 -22.55413713 24.68885784 -22.49609375 29.99609375 C-22.49754898 31.06239517 -22.49900421 32.12869659 -22.50050354 33.22731018 C-22.49884585 35.47912329 -22.48729923 37.73094787 -22.46655273 39.98266602 C-22.43763136 43.42187878 -22.44594095 46.85954635 -22.45898438 50.29882812 C-22.45274562 52.4895908 -22.44435362 54.68034862 -22.43359375 56.87109375 C-22.43799721 58.40883705 -22.43799721 58.40883705 -22.44248962 59.97764587 C-22.36882207 65.57886615 -22.23803591 70.76196409 -18 75 C-15.93227266 75.19941868 -15.93227266 75.19941868 -13.5625 75.1875 C-12.35787109 75.20876953 -12.35787109 75.20876953 -11.12890625 75.23046875 C-8.78369367 75.20162356 -8.78369367 75.20162356 -7 73 C-6.18991376 70.68849737 -5.53922493 68.35437476 -4.87890625 65.99609375 C-4.58886719 65.33738281 -4.29882812 64.67867188 -4 64 C-1.35559361 63.1185312 0.28060752 62.83825182 3 62.8125 C3.680625 62.79832031 4.36125 62.78414063 5.0625 62.76953125 C7 63 7 63 10 65 C10.95290153 71.39805313 8.96738992 77.33951671 6 83 C1.28659203 88.7358392 -3.70211732 91.3749689 -11.0859375 92.24609375 C-18.35615121 92.66700086 -24.76085902 90.7524587 -30.33984375 86.01171875 C-38.26927975 77.70947021 -38.31479708 69.25449723 -38.3359375 58.25 C-38.3425943 57.03731445 -38.3492511 55.82462891 -38.35610962 54.57519531 C-38.36620054 52.02019765 -38.37092775 49.46517382 -38.37060547 46.91015625 C-38.37498586 43.01257885 -38.41136581 39.11612796 -38.44921875 35.21875 C-38.45508624 32.72917052 -38.45905609 30.23958569 -38.4609375 27.75 C-38.47530853 26.59145508 -38.48967957 25.43291016 -38.50448608 24.23925781 C-38.46002829 16.3297002 -37.36180577 10.99037869 -32.140625 4.79296875 C-22.72131316 -3.20566176 -11.44629446 -6.2035574 0 0 Z " fill="#FBFDFC" transform="translate(196,206)"/>
<path d="M0 0 C5.54331711 3.51748667 9.06967075 8.89651224 11.125 15.0625 C11.24240122 16.747071 11.30006545 18.43638877 11.3125 20.125 C11.32667969 21.00285156 11.34085937 21.88070312 11.35546875 22.78515625 C11.125 25.0625 11.125 25.0625 9.125 27.0625 C6.84765625 27.328125 6.84765625 27.328125 4.1875 27.3125 C3.31222656 27.31765625 2.43695313 27.3228125 1.53515625 27.328125 C-0.875 27.0625 -0.875 27.0625 -3.875 25.0625 C-4.31640625 23.1875 -4.31640625 23.1875 -4.4375 21.0625 C-4.59339542 17.65671696 -4.59339542 17.65671696 -6.875 15.0625 C-8.94331698 14.6680412 -8.94331698 14.6680412 -11.25 14.6875 C-12.02085937 14.65914062 -12.79171875 14.63078125 -13.5859375 14.6015625 C-16.75767612 15.24024024 -17.83853297 16.58724566 -19.875 19.0625 C-20.46176631 21.52452062 -20.46176631 21.52452062 -20.36083984 24.2265625 C-20.3669931 25.25442871 -20.37314636 26.28229492 -20.37948608 27.34130859 C-20.36511505 28.44555176 -20.35074402 29.54979492 -20.3359375 30.6875 C-20.33502106 31.82654785 -20.33410461 32.9655957 -20.3331604 34.13916016 C-20.32712038 36.54659188 -20.31136256 38.95401596 -20.28662109 41.36132812 C-20.25013893 45.04845846 -20.24560159 48.73458311 -20.24609375 52.421875 C-20.23626168 54.76042536 -20.22460429 57.09896891 -20.2109375 59.4375 C-20.20759903 61.09386475 -20.20759903 61.09386475 -20.20419312 62.78369141 C-20.18505356 64.32549072 -20.18505356 64.32549072 -20.16552734 65.8984375 C-20.15790375 66.80126465 -20.15028015 67.7040918 -20.14242554 68.63427734 C-19.8559069 71.23586526 -19.27514007 72.86174495 -17.875 75.0625 C-15.53397141 76.23301429 -13.98147047 76.2617246 -11.375 76.3125 C-10.5809375 76.33828125 -9.786875 76.3640625 -8.96875 76.390625 C-8.2778125 76.28234375 -7.586875 76.1740625 -6.875 76.0625 C-4.61642003 73.16120309 -4.61642003 73.16120309 -4.4375 69.5 C-4.251875 68.365625 -4.06625 67.23125 -3.875 66.0625 C-0.752998 63.98116533 0.05766989 63.7887178 3.625 63.8125 C4.3984375 63.80734375 5.171875 63.8021875 5.96875 63.796875 C8.125 64.0625 8.125 64.0625 11.125 66.0625 C12.63623965 72.50228698 10.40547215 78.5701134 7.125 84.0625 C3.01203519 89.04135214 -1.20498624 91.75821712 -7.6796875 92.49609375 C-9.03625651 92.51953125 -10.39337925 92.52022172 -11.75 92.5 C-12.45745361 92.49242676 -13.16490723 92.48485352 -13.89379883 92.47705078 C-21.41897855 92.23936787 -25.45606805 90.48143195 -30.6875 85.25 C-36.09985461 77.36342613 -36.31985531 71.13933315 -36.2734375 61.71875 C-36.27630768 60.4356897 -36.27917786 59.15262939 -36.28213501 57.83068848 C-36.28653968 55.12415644 -36.28018796 52.41792291 -36.26611328 49.71142578 C-36.24902195 46.258265 -36.25887322 42.80580393 -36.27683067 39.35266876 C-36.29033491 36.03714114 -36.28085431 32.72179744 -36.2734375 29.40625 C-36.27951019 28.1737854 -36.28558289 26.9413208 -36.2918396 25.67150879 C-36.2141052 16.15165196 -34.84170997 10.02920997 -27.875 3.0625 C-19.43287243 -2.12503044 -9.29973536 -4.60242005 0 0 Z " fill="#FCFDFC" transform="translate(452.875,204.9375)"/>
<path d="M0 0 C2.69335938 1.79296875 2.69335938 1.79296875 5 5 C5.7266458 8.89632488 5.65289169 12.73416141 5.59375 16.6875 C5.59379028 17.82276123 5.59383057 18.95802246 5.59387207 20.12768555 C5.58851697 22.52495874 5.57093496 24.92223149 5.54199219 27.31933594 C5.50014975 30.98687444 5.50092381 34.65257562 5.5078125 38.3203125 C5.49731944 40.65105442 5.48438071 42.98178687 5.46875 45.3125 C5.46854858 46.40844482 5.46834717 47.50438965 5.46813965 48.63354492 C5.44427185 50.1703894 5.44427185 50.1703894 5.41992188 51.73828125 C5.40729309 53.08466675 5.40729309 53.08466675 5.39440918 54.45825195 C4.91380775 57.55546114 3.81465464 59.46472089 2 62 C-1.09173752 63.54586876 -3.59429552 63.29359521 -7 63 C-9.90717073 60.78136971 -10.83981643 59.48055071 -12 56 C-12.10190578 54.38529598 -12.14838408 52.76679207 -12.16113281 51.14892578 C-12.17074036 50.16425323 -12.1803479 49.17958069 -12.19024658 48.16506958 C-12.19449646 47.10254974 -12.19874634 46.04002991 -12.203125 44.9453125 C-12.20882507 43.85161346 -12.21452515 42.75791443 -12.22039795 41.631073 C-12.22984787 39.31607023 -12.2363819 37.00105401 -12.24023438 34.68603516 C-12.24994263 31.14592016 -12.28096783 27.60638503 -12.3125 24.06640625 C-12.31902986 21.81771178 -12.3242804 19.56901316 -12.328125 17.3203125 C-12.3404718 16.26184113 -12.3528186 15.20336975 -12.36553955 14.11282349 C-12.3375137 4.85855586 -12.3375137 4.85855586 -9 1 C-5.86128812 -0.56935594 -3.46144178 -0.35201103 0 0 Z " fill="#40B072" transform="translate(316,219)"/>
<path d="M0 0 C13.04156479 -0.48753513 13.04156479 -0.48753513 16.92578125 1.48828125 C19.81528446 4.98724653 19.66274885 8.1061612 19.5 12.4375 C19.50386719 13.56381836 19.50386719 13.56381836 19.5078125 14.71289062 C19.42785182 19.25865548 18.90307277 22.30712067 16 26 C11.53794887 28.23102556 4.78092876 27.04346299 0 27 C0 18.09 0 9.18 0 0 Z " fill="#40B072" transform="translate(237,218)"/>
<path d="M0 0 C13 0 13 0 18 3 C19.49357569 5.98715138 19.22503435 9.03887936 19.25 12.3125 C19.27578125 13.62863281 19.3015625 14.94476563 19.328125 16.30078125 C18.89886846 21.14013776 17.3803519 23.6196481 14 27 C9.32380812 27.28034724 4.68783389 27.08523334 0 27 C0 18.09 0 9.18 0 0 Z " fill="#42B174" transform="translate(368,218)"/>
<path d="M0 0 C13 0 13 0 17 2 C20.60089095 6.97702762 19.57135717 14.19904425 19 20 C17.84470616 22.96403441 16.25017473 24.74982527 14 27 C9.33154772 27.14426614 4.67134047 27.04208415 0 27 C0 18.09 0 9.18 0 0 Z " fill="#4CB57B" transform="translate(561,218)"/>
<path d="M0 0 C2.875 1.5 2.875 1.5 5 4 C5.66017005 6.80141726 5.60984064 9.19243175 5 12 C3.4375 14.5 3.4375 14.5 1 16 C-3.42863214 16.72468526 -5.28066838 16.49454049 -9 13.9375 C-11 11 -11 11 -11.0625 7.4375 C-9.17807092 1.34081767 -6.49026895 -1.05963575 0 0 Z " fill="#4BB57B" transform="translate(536,312)"/>
<path d="M0 0 C0.33 0 0.66 0 1 0 C1.71655029 3.91358426 2.4284924 7.82797631 3.13623047 11.74316406 C3.37748677 13.07412164 3.61998685 14.40485441 3.86376953 15.73535156 C4.21455909 17.6510921 4.56046268 19.56772526 4.90625 21.484375 C5.11572266 22.63647461 5.32519531 23.78857422 5.54101562 24.97558594 C6 28 6 28 6 32 C2.37 32 -1.26 32 -5 32 C-3.78254331 21.22908903 -2.12034881 10.63001537 0 0 Z " fill="#59BA85" transform="translate(503,231)"/>
<path d="M0 0 C0.66 0 1.32 0 2 0 C3.0044134 2.2898234 4.00367612 4.5816599 5 6.875 C5.28617187 7.52597656 5.57234375 8.17695313 5.8671875 8.84765625 C8 13.7734375 8 13.7734375 8 16 C7.34 16 6.68 16 6 16 C5.67 14.68 5.34 13.36 5 12 C-0.3907997 12.23004734 -0.3907997 12.23004734 -5 14.5625 C-5.33 15.036875 -5.66 15.51125 -6 16 C-5.37183502 12.05050296 -4.1354471 8.80107972 -2.4375 5.1875 C-1.98246094 4.21167969 -1.52742188 3.23585938 -1.05859375 2.23046875 C-0.70925781 1.49441406 -0.35992187 0.75835937 0 0 Z " fill="#E2F3EA" transform="translate(278,312)"/>
<path d="M0 0 C0.66 0 1.32 0 2 0 C2 1.98 2 3.96 2 6 C4.64 6 7.28 6 10 6 C10 4.02 10 2.04 10 0 C10.66 0 11.32 0 12 0 C12 5.28 12 10.56 12 16 C11.34 16 10.68 16 10 16 C10 13.69 10 11.38 10 9 C7.36 9 4.72 9 2 9 C2 11.31 2 13.62 2 16 C1.34 16 0.68 16 0 16 C0 10.72 0 5.44 0 0 Z " fill="#D7EEE2" transform="translate(366,312)"/>
<path d="M0 0 C6 0 6 0 9 2 C9.3125 4.5 9.3125 4.5 9 7 C7 9 7 9 4.375 9.125 C3.59125 9.08375 2.8075 9.0425 2 9 C2 11.31 2 13.62 2 16 C1.34 16 0.68 16 0 16 C0 10.72 0 5.44 0 0 Z " fill="#E5F4EC" transform="translate(564,312)"/>
<path d="M0 0 C0.99 0.495 0.99 0.495 2 1 C2 2.65 2 4.3 2 6 C4.31 6 6.62 6 9 6 C9 4.02 9 2.04 9 0 C9.66 0 10.32 0 11 0 C11 5.28 11 10.56 11 16 C10.34 16 9.68 16 9 16 C9 13.69 9 11.38 9 9 C6.69 9 4.38 9 2 9 C2 11.31 2 13.62 2 16 C1.34 16 0.68 16 0 16 C0 10.72 0 5.44 0 0 Z " fill="#C9E9D7" transform="translate(208,312)"/>
<path d="M0 0 C2.875 1.5 2.875 1.5 5 4 C5.66017005 6.80141726 5.60984064 9.19243175 5 12 C3.4375 14.5 3.4375 14.5 1 16 C-3.42863214 16.72468526 -5.28066838 16.49454049 -9 13.9375 C-11 11 -11 11 -11.0625 7.4375 C-9.17807092 1.34081767 -6.49026895 -1.05963575 0 0 Z M-7.875 3.6875 C-9.20607683 6.42360236 -9.46233717 7.99480842 -9 11 C-8.04451019 12.95625978 -8.04451019 12.95625978 -6 14 C-2.5 14.58333333 -2.5 14.58333333 1 14 C3.14782671 12.44202118 3.14782671 12.44202118 4 10 C3.8624874 7.18099161 3.35530428 5.54230653 1.8125 3.1875 C-1.5795932 0.96509411 -4.85149313 0.96634382 -7.875 3.6875 Z " fill="#E4F4EB" transform="translate(536,312)"/>
<path d="M0 0 C0.99 0.66 1.98 1.32 3 2 C2.67 2.66 2.34 3.32 2 4 C1.34 3.67 0.68 3.34 0 3 C-3 2.66666667 -3 2.66666667 -6 3 C-8.35014158 5.837578 -8.35014158 5.837578 -7.6875 9.125 C-7.29355679 11.88086422 -7.29355679 11.88086422 -6 13 C-1.34911285 13.30523962 -1.34911285 13.30523962 3 12 C3 12.99 3 13.98 3 15 C-0.13871188 16.56935594 -2.53855822 16.35201103 -6 16 C-9 13.9375 -9 13.9375 -11 11 C-11.07003547 7.00797809 -10.58571574 4.84603384 -8.3125 1.5625 C-5.31357146 -0.46380307 -3.55417758 -0.4537248 0 0 Z " fill="#E0F2E8" transform="translate(469,312)"/>
<path d="M0 0 C1.1446875 0.3403125 1.1446875 0.3403125 2.3125 0.6875 C2.6425 2.0075 2.9725 3.3275 3.3125 4.6875 C2.6525 4.3575 1.9925 4.0275 1.3125 3.6875 C1.3125 3.0275 1.3125 2.3675 1.3125 1.6875 C-0.67241642 1.95426204 -0.67241642 1.95426204 -2.6875 2.6875 C-3.0175 3.6775 -3.3475 4.6675 -3.6875 5.6875 C-2.718125 5.996875 -1.74875 6.30625 -0.75 6.625 C2.3125 7.6875 2.3125 7.6875 3.3125 8.6875 C3.4375 11.6875 3.4375 11.6875 3.3125 14.6875 C2.3125 15.6875 2.3125 15.6875 -0.75 15.75 C-1.719375 15.729375 -2.68875 15.70875 -3.6875 15.6875 C-4.3475 14.0375 -5.0075 12.3875 -5.6875 10.6875 C-5.0275 10.6875 -4.3675 10.6875 -3.6875 10.6875 C-3.3575 11.3475 -3.0275 12.0075 -2.6875 12.6875 C-0.66286745 13.33963292 -0.66286745 13.33963292 1.3125 13.6875 C1.19072312 11.77283633 1.19072312 11.77283633 0.3125 9.6875 C-0.5125 9.1925 -1.3375 8.6975 -2.1875 8.1875 C-4.6875 6.6875 -4.6875 6.6875 -5.6875 4.6875 C-5.6875 2.6875 -5.6875 2.6875 -4.5625 0.875 C-2.6875 -0.3125 -2.6875 -0.3125 0 0 Z " fill="#E1F2E9" transform="translate(599.6875,312.3125)"/>
<path d="M0 0 C2.97 0 5.94 0 9 0 C9 0.66 9 1.32 9 2 C6.69 2 4.38 2 2 2 C2 3.65 2 5.3 2 7 C3.98 7 5.96 7 8 7 C8 7.66 8 8.32 8 9 C6.02 9 4.04 9 2 9 C2 10.98 2 12.96 2 15 C4.31 15 6.62 15 9 15 C9 15.33 9 15.66 9 16 C6.03 16 3.06 16 0 16 C0 10.72 0 5.44 0 0 Z " fill="#ECF7F1" transform="translate(242,312)"/>
<path d="M0 0 C1.65 0 3.3 0 5 0 C4.01 0.33 3.02 0.66 2 1 C2 3.31 2 5.62 2 8 C2.99 8 3.98 8 5 8 C6.06775224 9.96466413 7.06553465 11.96855359 8 14 C7.67 14.66 7.34 15.32 7 16 C5.68 14.02 4.36 12.04 3 10 C2.67 11.98 2.34 13.96 2 16 C1.34 16 0.68 16 0 16 C0 10.72 0 5.44 0 0 Z " fill="#F3FAF6" transform="translate(495,312)"/>
<path d="M0 0 C0.66 0 1.32 0 2 0 C3.38938077 1.96147874 4.7260411 3.96166576 6 6 C7.32 4.02 8.64 2.04 10 0 C10.33 0.99 10.66 1.98 11 3 C10.54625 3.721875 10.0925 4.44375 9.625 5.1875 C7.49271272 8.87799721 7.35822868 11.77290158 7 16 C6.34 16 5.68 16 5 16 C4.89042969 15.40832031 4.78085937 14.81664062 4.66796875 14.20703125 C3.732075 9.54278029 2.67286745 6.00930117 0 2 C0 1.34 0 0.68 0 0 Z " fill="#E4F4EB" transform="translate(399,312)"/>
<path d="M0 0 C0.598125 0.350625 1.19625 0.70125 1.8125 1.0625 C1.8125 2.7125 1.8125 4.3625 1.8125 6.0625 C0 7.125 0 7.125 -2.1875 8.0625 C-3.1775 7.7325 -4.1675 7.4025 -5.1875 7.0625 C-5.1875 4.7525 -5.1875 2.4425 -5.1875 0.0625 C-2.1875 -0.9375 -2.1875 -0.9375 0 0 Z " fill="#DFF2E7" transform="translate(502.1875,312.9375)"/>
<path d="M0 0 C3.3 0 6.6 0 10 0 C10 0.66 10 1.32 10 2 C8.68 2 7.36 2 6 2 C6 6.62 6 11.24 6 16 C5.34 16 4.68 16 4 16 C4 11.38 4 6.76 4 2 C2.68 2 1.36 2 0 2 C0 1.34 0 0.68 0 0 Z " fill="#D4EDDF" transform="translate(334,312)"/>
<path d="M0 0 C0.33 0.99 0.66 1.98 1 3 C4.465 2.505 4.465 2.505 8 2 C11 6.75 11 6.75 11 9 C10.34 9 9.68 9 9 9 C8.67 7.68 8.34 6.36 8 5 C2.6092003 5.23004734 2.6092003 5.23004734 -2 7.5625 C-2.33 8.036875 -2.66 8.51125 -3 9 C-2.44271087 5.65626525 -1.64826111 2.96687001 0 0 Z " fill="#F0F9F4" transform="translate(275,319)"/>
<path d="M0 0 C0.66 0 1.32 0 2 0 C2 5.28 2 10.56 2 16 C1.34 16 0.68 16 0 16 C0 13.36 0 10.72 0 8 C-0.66 7.67 -1.32 7.34 -2 7 C-1.34 7 -0.68 7 0 7 C0 4.69 0 2.38 0 0 Z " fill="#E7F5EE" transform="translate(376,312)"/>
<path d="M0 0 C0.66 0 1.32 0 2 0 C2 1.98 2 3.96 2 6 C3.32 6.33 4.64 6.66 6 7 C4.68 7 3.36 7 2 7 C2 9.31 2 11.62 2 14 C1.34 14 0.68 14 0 14 C0 9.38 0 4.76 0 0 Z " fill="#F1F9F5" transform="translate(564,314)"/>
<path d="M0 0 C2.475 0.495 2.475 0.495 5 1 C5 2.32 5 3.64 5 5 C3.35 5 1.7 5 0 5 C0 3.35 0 1.7 0 0 Z " fill="#48B379" transform="translate(566,314)"/>
<path d="M0 0 C2.475 0.495 2.475 0.495 5 1 C4.67 2.32 4.34 3.64 4 5 C2.68 5 1.36 5 0 5 C0 3.35 0 1.7 0 0 Z " fill="#43B175" transform="translate(497,314)"/>
<path d="M0 0 C1.5 1.3125 1.5 1.3125 3 3 C3 3.99 3 4.98 3 6 C1.35 6 -0.3 6 -2 6 C-1.34 4.02 -0.68 2.04 0 0 Z " fill="#48B379" transform="translate(278,316)"/>
</svg>
